HIERARCHY
ROOT SpineBase
{
  OFFSET 0.000000 0.000000 0.000000
  CHANNELS 6 Xposition Yposition Zposition Zrotation Xrotation Yrotation
  JOINT SpineMid
  {
    OFFSET 0.000000 24.542817 0.000000
    CHANNELS 3 Zrotation Xrotation Yrotation
    JOINT SpineShoulder
    {
      OFFSET -0.269880 18.290438 -0.613066
      CHANNELS 3 Zrotation Xrotation Yrotation
      JOINT Neck
      {
        OFFSET -0.178540 6.067327 -0.501051
        CHANNELS 3 Zrotation Xrotation Yrotation
        JOINT Head
        {
          OFFSET 2.614922 10.989716 -0.509121
          CHANNELS 3 Zrotation Xrotation Yrotation
          End Site
          {
            OFFSET 0 0 0
          }
        }
      }
      JOINT ShoulderLeft
      {
        OFFSET -11.553685 -3.507641 -6.791342
        CHANNELS 3 Zrotation Xrotation Yrotation
        JOINT ElbowLeft
        {
          OFFSET -0.618559 -20.613571 -3.669711
          CHANNELS 3 Zrotation Xrotation Yrotation
          JOINT WristLeft
          {
            OFFSET 9.006594 -17.493601 -3.460936
            CHANNELS 3 Zrotation Xrotation Yrotation
            JOINT HandLeft
            {
              OFFSET 4.877065 -5.780819 1.205700
              CHANNELS 3 Zrotation Xrotation Yrotation
              JOINT HandTipLeft
              {
                OFFSET 3.696759 -4.556362 -0.854510
                CHANNELS 3 Zrotation Xrotation Yrotation
                End Site
                {
                  OFFSET 0 0 0
                }
              }
              JOINT ThumbLeft
              {
                OFFSET -1.032865 -1.834486 -1.188748
                CHANNELS 3 Zrotation Xrotation Yrotation
                End Site
                {
                  OFFSET 0 0 0
                }
              }
            }
          }
        }
      }
      JOINT ShoulderRight
      {
        OFFSET 12.073969 -3.970178 4.238135
        CHANNELS 3 Zrotation Xrotation Yrotation
        JOINT ElbowRight
        {
          OFFSET 3.301057 -22.831438 2.356459
          CHANNELS 3 Zrotation Xrotation Yrotation
          JOINT WristRight
          {
            OFFSET -2.918879 -17.662660 -10.970084
            CHANNELS 3 Zrotation Xrotation Yrotation
            JOINT HandRight
            {
              OFFSET -3.176377 -3.936681 -4.806797
              CHANNELS 3 Zrotation Xrotation Yrotation
              JOINT HandTipRight
              {
                OFFSET -1.451041 -4.883474 -2.965555
                CHANNELS 3 Zrotation Xrotation Yrotation
                End Site
                {
                  OFFSET 0 0 0
                }
              }
              JOINT ThumbRight
              {
                OFFSET -1.587317 -4.136663 -1.773462
                CHANNELS 3 Zrotation Xrotation Yrotation
                End Site
                {
                  OFFSET 0 0 0
                }
              }
            }
          }
        }
      }
    }
  }
  JOINT HipLeft
  {
    OFFSET -5.726600 1.206705 -5.132397
    CHANNELS 3 Zrotation Xrotation Yrotation
    JOINT KneeLeft
    {
      OFFSET -3.504632 -36.203427 5.957016
      CHANNELS 3 Zrotation Xrotation Yrotation
      JOINT AnkleLeft
      {
        OFFSET -1.493881 -31.733366 10.163680
        CHANNELS 3 Zrotation Xrotation Yrotation
        JOINT FootLeft
        {
          OFFSET 3.355081 -3.544653 -10.546335
          CHANNELS 3 Zrotation Xrotation Yrotation
          End Site
          {
            OFFSET 0 0 0
          }
        }
      }
    }
  }
  JOINT HipRight
  {
    OFFSET 4.289044 -0.122914 -0.528542
    CHANNELS 3 Zrotation Xrotation Yrotation
    JOINT KneeRight
    {
      OFFSET 0.284898 -36.474865 9.998384
      CHANNELS 3 Zrotation Xrotation Yrotation
      JOINT AnkleRight
      {
        OFFSET -5.628871 -31.512562 9.597339
        CHANNELS 3 Zrotation Xrotation Yrotation
        JOINT FootRight
        {
          OFFSET -4.069202 -6.457336 -4.165646
          CHANNELS 3 Zrotation Xrotation Yrotation
          End Site
          {
            OFFSET 0 0 0
          }
        }
      }
    }
  }
}
MOTION
Frames: 9
Frame Time: 0.033333
72.194424 75.032722 307.206057 -0.000000 0.000000 -24.686653 0.000000 0.000000 24.686653 -0.000000 0.000000 0.000000 -0.000000 0.000000 0.000000 0.000000 0.000000 0.000000 -0.000000 0.000000 0.000000 -0.000000 0.000000 0.000000 -0.000000 0.000000 0.000000 -0.000000 0.000000 0.000000 0.000000 0.000000 0.000000 0.000000 0.000000 0.000000 -0.000000 0.000000 0.000000 -0.000000 0.000000 0.000000 -0.000000 0.000000 0.000000 -0.000000 0.000000 0.000000 0.000000 0.000000 0.000000 0.000000 0.000000 0.000000 0.000000 0.000000 24.686653 -0.000000 0.000000 0.000000 -0.000000 0.000000 0.000000 0.000000 0.000000 0.000000 0.000000 0.000000 24.686653 -0.000000 0.000000 0.000000 -0.000000 0.000000 0.000000 0.000000 0.000000 0.000000
72.210310 75.116244 307.293765 0.135888 -0.225978 -25.789050 -0.220668 0.144351 25.789596 -0.000000 0.000000 0.000000 -0.000000 0.000000 0.000000 0.000000 0.000000 0.000000 -0.000000 0.000000 0.000000 1.647041 -0.859531 -0.751599 -2.855683 1.151399 0.827029 3.679850 -2.788655 -2.386705 0.000000 0.000000 0.000000 0.000000 0.000000 0.000000 -0.000000 0.000000 0.000000 -0.000000 0.000000 0.000000 0.742353 -0.136184 -0.801019 -2.678546 1.888451 1.455132 0.000000 0.000000 0.000000 0.000000 0.000000 0.000000 -0.220668 0.144351 25.789596 -0.000000 0.000000 0.000000 -0.000000 0.000000 0.000000 0.000000 0.000000 0.000000 -0.220668 0.144351 25.789596 -0.000000 0.000000 0.000000 -0.000000 0.000000 0.000000 0.000000 0.000000 0.000000
72.225691 75.181801 307.374152 0.257232 -0.435117 -26.772146 -0.425658 0.272600 26.774135 -0.000000 0.000000 0.000000 -0.891711 0.947976 -0.259122 0.000000 0.000000 0.000000 -0.000000 0.000000 0.000000 2.936942 -1.586757 -1.343376 -5.299095 2.035587 1.502450 6.647242 -5.241802 -4.272775 0.000000 0.000000 0.000000 0.000000 0.000000 0.000000 0.475310 1.090428 0.202275 -0.872031 -0.005793 -0.147799 1.732081 -1.279722 -1.526251 -5.212690 3.543948 2.841828 0.000000 0.000000 0.000000 0.000000 0.000000 0.000000 -0.425658 0.272600 26.774135 -0.000000 0.000000 0.000000 0.382181 -0.262945 -1.390139 0.000000 0.000000 0.000000 -0.425658 0.272600 26.774135 -0.000000 0.000000 0.000000 -0.000000 0.000000 0.000000 0.000000 0.000000 0.000000
72.240567 75.229394 307.447219 0.363814 -0.627067 -27.635937 -0.613186 0.386753 27.639997 -0.000000 0.000000 0.000000 -1.272298 1.379616 -0.371136 0.000000 0.000000 0.000000 -0.000000 0.000000 0.000000 3.930137 -2.198157 -1.809034 -7.347009 2.680406 2.016893 8.896968 -7.274393 -5.709780 0.000000 0.000000 0.000000 0.000000 0.000000 0.000000 0.634777 1.440161 0.265905 -1.091282 -0.029030 -0.236837 2.239687 -1.583623 -2.063853 -7.485646 4.898880 4.104630 0.000000 0.000000 0.000000 0.000000 0.000000 0.000000 -0.613186 0.386753 27.639997 -0.000000 0.000000 0.000000 0.540814 -0.381304 -1.978754 0.000000 0.000000 0.000000 -1.036650 1.092616 27.638818 0.047711 -0.821740 0.006988 0.949192 -0.366224 -0.381299 0.000000 0.000000 0.000000
72.254939 75.259021 307.512966 0.455454 -0.801529 -28.380662 -0.043716 -0.027581 28.385870 -0.075118 -0.096293 -0.000230 -1.941842 2.685958 -0.445755 0.000000 0.000000 0.000000 -0.783829 0.128195 0.110386 5.120353 -1.947026 -2.342994 -9.001112 3.103432 2.360458 10.415171 -8.827933 -6.742407 0.000000 0.000000 0.000000 0.000000 0.000000 0.000000 0.424843 2.585694 0.300505 -1.179143 -0.086833 -0.337541 2.512128 -1.662047 -2.463221 -9.377752 5.898284 5.181636 0.000000 0.000000 0.000000 0.000000 0.000000 0.000000 -0.781725 0.488666 28.387182 -0.000000 0.000000 0.000000 0.678001 -0.489863 -2.495407 0.000000 0.000000 0.000000 -1.307432 1.344860 28.388250 0.055444 -1.003139 0.007829 1.144020 -0.416692 -0.475392 0.000000 0.000000 0.000000
72.268806 75.270683 307.571393 0.532012 -0.958249 -29.006657 -0.057432 -0.047566 29.012790 -0.090345 -0.110418 -0.001345 -2.282861 3.247296 -0.524963 0.000000 0.000000 0.000000 -0.885754 0.156258 0.130579 5.702532 -2.218107 -2.660431 -10.251712 3.314426 2.522937 11.171995 -9.861065 -7.398825 0.000000 0.000000 0.000000 0.000000 0.000000 0.000000 0.467653 2.916403 0.327376 -1.141291 -0.188534 -0.450918 2.549744 -1.513874 -2.728551 -10.785329 6.507781 6.015961 0.000000 0.000000 0.000000 0.000000 0.000000 0.000000 -0.929984 0.580010 29.015813 -0.000000 0.000000 0.000000 0.793910 -0.587958 -2.939546 0.000000 0.000000 0.000000 -1.534296 1.547519 29.019743 0.059132 -1.139138 0.007878 1.277741 -0.430708 -0.553312 0.000000 0.000000 0.000000
72.278212 75.267139 307.618188 0.582330 -1.095024 -29.544556 -0.061815 -0.077824 29.550869 -0.106193 -0.132529 -0.003738 -2.499110 3.866027 -0.610520 0.000000 0.000000 0.000000 -0.942104 0.175004 0.149049 6.008688 -2.426439 -2.906263 -10.711279 2.964571 2.179951 10.639279 -9.390920 -7.060871 0.000000 0.000000 0.000000 0.000000 0.000000 0.000000 0.489688 3.155552 0.339791 -0.925499 -0.407417 -0.590508 2.235745 -1.069346 -2.758052 -11.861886 6.864420 6.631501 0.000000 0.000000 0.000000 0.000000 0.000000 0.000000 -1.970304 0.764315 29.391095 0.756264 -0.539361 0.180187 0.898319 -0.684897 -3.349479 0.000000 0.000000 0.000000 -1.686086 1.698509 29.566145 0.046472 -1.214028 0.003737 1.376802 -0.490783 -0.579027 0.000000 0.000000 0.000000
72.290476 75.230059 307.661880 0.612803 -1.205647 -29.890347 -0.091821 -0.098471 29.896131 -0.119467 -0.134053 -0.006600 -2.646355 4.258511 -0.661425 0.000000 0.000000 0.000000 -0.926080 0.150833 0.159440 6.104812 -2.535264 -3.055091 -11.044613 1.787242 1.034638 8.114690 -9.900401 -7.376663 0.000000 0.000000 0.000000 0.000000 0.000000 0.000000 0.403104 3.169516 0.322677 -0.494894 -0.514787 -0.723701 1.769684 -0.779888 -2.492357 -11.758689 6.195077 6.692814 0.000000 0.000000 0.000000 0.000000 0.000000 0.000000 -2.167562 0.844682 29.720558 0.847185 -0.604231 0.202329 0.955933 -0.748872 -3.587084 0.000000 0.000000 0.000000 -1.785725 1.788980 29.916336 0.043216 -1.235251 0.002656 1.365617 -0.404053 -0.627703 0.000000 0.000000 0.000000
72.302534 75.173392 307.694286 0.647527 -1.291788 -30.070919 -0.101184 -0.129144 30.076801 -0.131111 -0.118313 -0.007930 -2.879117 4.584889 -0.703962 0.000000 0.000000 0.000000 -0.918854 0.128642 0.164981 6.030754 -2.622658 -3.150571 -11.071608 1.908513 1.080936 8.065955 -8.863807 -6.527681 0.000000 0.000000 0.000000 0.000000 0.000000 0.000000 0.415731 3.036205 0.294120 -0.196942 -0.593000 -0.828579 1.477190 -0.393304 -2.453017 -11.785209 6.907635 6.567106 0.000000 0.000000 0.000000 0.000000 0.000000 0.000000 -2.324174 0.880190 29.889636 0.924666 -0.631434 0.218344 0.987159 -0.793973 -3.726974 0.000000 0.000000 0.000000 -1.850989 1.816736 30.098804 0.043305 -1.207898 0.002884 1.249682 -0.344218 -0.590736 0.000000 0.000000 0.000000
